<svg width="82" height="58" viewBox="0 0 82 58" fill="none" xmlns="http://www.w3.org/2000/svg">
    <path d="M54.9379 57.6355L18.9689 57.6355C14.1991 57.6355 9.62471 55.7406 6.252 52.3679C2.87928 48.9951 0.984512 44.4207 0.984512 39.651L72.9222 39.651C72.9222 44.4207 71.0275 48.9951 67.6548 52.3679C64.282 55.7406 59.7077 57.6355 54.9379 57.6355Z" fill="#CC4900"/>
    <path d="M47.744 39.6511H69.3254V46.845H47.744V39.6511Z" fill="#E76400"/>
    <path d="M51.3409 39.6511H0.984497C0.984497 44.4209 2.87927 48.9953 6.25198 52.3681C9.62469 55.7408 14.1991 57.6356 18.9688 57.6357H33.3565C38.1263 57.6356 42.7007 55.7408 46.0734 52.3681C49.4461 48.9953 51.3409 44.4209 51.3409 39.6511Z" fill="#EF7F00"/>
    <path d="M63.8844 57.6357V50.4418C66.2769 50.4419 68.6016 49.647 70.4931 48.1821C72.3847 46.7172 73.7359 44.6652 74.3343 42.3488L81.2997 44.1473C80.3025 48.0079 78.0508 51.4277 74.8984 53.8693C71.746 56.3108 67.8717 57.6357 63.8844 57.6357Z" fill="#BF3C00"/>
    <path d="M4.5813 39.6511H47.744V46.845H4.5813V39.6511Z" fill="#F59707"/>
    <path d="M36.9533 50.4418L4.5813 36.0543H69.3254L36.9533 50.4418Z" fill="#FDBC34"/>
    <path d="M36.223 46.8295L60.1207 36.2086L61.5819 39.4963L37.6842 50.1173L36.223 46.8295Z" fill="#FDAB00"/>
    <path d="M65.7286 25.2636H8.17834C4.20529 25.2636 0.984497 28.4844 0.984497 32.4574C0.984497 36.4304 4.20529 39.6512 8.17834 39.6512H65.7286C69.7016 39.6512 72.9224 36.4304 72.9224 32.4574C72.9224 28.4844 69.7016 25.2636 65.7286 25.2636Z" fill="#8B2800"/>
    <path d="M44.1472 25.2636H8.17834C4.20529 25.2636 0.984497 28.4844 0.984497 32.4574C0.984497 36.4304 4.20529 39.6512 8.17834 39.6512H44.1472C48.1203 39.6512 51.3411 36.4304 51.3411 32.4574C51.3411 28.4844 48.1203 25.2636 44.1472 25.2636Z" fill="#993B17"/>
    <path d="M38.7519 36.0543C47.6912 36.0543 54.9379 32.8335 54.9379 28.8605C54.9379 24.8874 47.6912 21.6666 38.7519 21.6666C29.8126 21.6666 22.5659 24.8874 22.5659 28.8605C22.5659 32.8335 29.8126 36.0543 38.7519 36.0543Z" fill="#C11107"/>
    <path d="M53.1394 36.0541C62.0787 36.0541 69.3254 32.0282 69.3254 27.062C69.3254 22.0957 62.0787 18.0698 53.1394 18.0698C44.2001 18.0698 36.9534 22.0957 36.9534 27.062C36.9534 32.0282 44.2001 36.0541 53.1394 36.0541Z" fill="#C82E25"/>
    <path d="M20.7673 32.4575C29.7066 32.4575 36.9533 29.2367 36.9533 25.2636C36.9533 21.2906 29.7066 18.0698 20.7673 18.0698C11.828 18.0698 4.5813 21.2906 4.5813 25.2636C4.5813 29.2367 11.828 32.4575 20.7673 32.4575Z" fill="#C82E25"/>
    <path d="M53.1395 32.4573C60.0923 32.4573 65.7286 30.0417 65.7286 27.062C65.7286 24.0822 60.0923 21.6666 53.1395 21.6666C46.1867 21.6666 40.5503 24.0822 40.5503 27.062C40.5503 30.0417 46.1867 32.4573 53.1395 32.4573Z" fill="#D2514A"/>
    <path d="M4.5813 25.2636C4.5813 25.2636 4.5813 28.8605 11.7751 28.8605C18.969 28.8605 18.9688 32.4573 22.5658 32.4573C26.1628 32.4573 26.1627 28.8605 33.3565 28.8605C40.5503 28.8605 39.8503 32.4573 43.7971 32.4573C47.744 32.4573 47.744 28.8605 54.9378 28.8605C62.1317 28.8605 69.3254 28.8605 69.3254 21.6666H4.5813V25.2636Z" fill="#FEE3AA"/>
    <path d="M22.5659 25.2636C22.5659 21.9572 23.2172 18.6831 24.4825 15.6284C25.7478 12.5736 27.6024 9.79798 29.9404 7.45997C32.2784 5.12196 35.0541 3.26735 38.1088 2.00202C41.1636 0.736702 44.4377 0.0854492 47.7441 0.0854492C51.0506 0.0854492 54.3246 0.736702 57.3794 2.00202C60.4341 3.26735 63.2098 5.12196 65.5478 7.45997C67.8858 9.79798 69.7404 12.5736 71.0057 15.6284C72.271 18.6831 72.9223 21.9572 72.9223 25.2636H22.5659Z" fill="#EF7F00"/>
    <path d="M47.744 14.4729C55.69 14.4729 62.1315 11.2522 62.1315 7.27911C62.1315 3.30606 55.69 0.0852661 47.744 0.0852661C39.798 0.0852661 33.3564 3.30606 33.3564 7.27911C33.3564 11.2522 39.798 14.4729 47.744 14.4729Z" fill="#E76400"/>
    <path d="M53.1393 39.6511C50.8275 39.6526 48.5228 39.3939 46.2687 38.8801C43.7963 39.3954 41.2773 39.6538 38.7518 39.6511C32.6627 39.6511 27.1672 38.3057 23.5299 35.9452C22.6307 36.0138 21.7105 36.0543 20.7673 36.0543C14.4728 36.0543 8.78932 34.6316 5.17664 32.1499L7.21405 29.1854C10.2418 31.2648 15.1823 32.4573 20.7673 32.4573C21.8263 32.4573 22.8521 32.4012 23.8496 32.3081L24.5188 32.2465L25.0633 32.6382C29.3398 35.71 38.2969 36.9729 45.8946 35.2814L46.3056 35.1902L46.713 35.2885C48.8169 35.7991 50.9743 36.0562 53.1393 36.0543C59.3566 36.0543 64.9276 34.1204 67.6798 31.0066L70.3739 33.3882C66.9104 37.3099 60.4667 39.6511 53.1393 39.6511Z" fill="#7D1A00"/>
    <path d="M54.9377 18.0698H69.3253V25.2636H54.9377V18.0698Z" fill="#FDBC34"/>
    <path d="M0.984619 25.2636C0.984619 18.5859 3.63731 12.1818 8.35914 7.45994C13.081 2.73811 19.4851 0.0854187 26.1628 0.0854187C32.8405 0.0854187 39.2447 2.73811 43.9665 7.45994C48.6883 12.1818 51.341 18.5859 51.341 25.2636H0.984619Z" fill="#F59707"/>
    <path d="M4.5813 18.0698H47.744V25.2636H4.5813V18.0698Z" fill="#FDCF6D"/>
    <path d="M26.1627 14.4729C34.1087 14.4729 40.5502 11.2522 40.5502 7.27911C40.5502 3.30606 34.1087 0.0852661 26.1627 0.0852661C18.2167 0.0852661 11.7751 3.30606 11.7751 7.27911C11.7751 11.2522 18.2167 14.4729 26.1627 14.4729Z" fill="#EF7F00"/>
    <path d="M15.372 10.8761C17.3585 10.8761 18.9688 10.0709 18.9688 9.07759C18.9688 8.0843 17.3585 7.27908 15.372 7.27908C13.3855 7.27908 11.7751 8.0843 11.7751 9.07759C11.7751 10.0709 13.3855 10.8761 15.372 10.8761Z" fill="#FEE3AA"/>
    <path d="M26.1628 3.68227C28.1492 3.68227 29.7596 2.87705 29.7596 1.88377C29.7596 0.890483 28.1492 0.0852661 26.1628 0.0852661C24.1763 0.0852661 22.5659 0.890483 22.5659 1.88377C22.5659 2.87705 24.1763 3.68227 26.1628 3.68227Z" fill="#FEE3AA"/>
    <path d="M36.9533 7.27913C38.9398 7.27913 40.5501 6.47392 40.5501 5.48063C40.5501 4.48735 38.9398 3.68213 36.9533 3.68213C34.9668 3.68213 33.3564 4.48735 33.3564 5.48063C33.3564 6.47392 34.9668 7.27913 36.9533 7.27913Z" fill="#FEE3AA"/>
    <path d="M54.9379 7.27913C56.9244 7.27913 58.5347 6.47392 58.5347 5.48063C58.5347 4.48735 56.9244 3.68213 54.9379 3.68213C52.9514 3.68213 51.3411 4.48735 51.3411 5.48063C51.3411 6.47392 52.9514 7.27913 54.9379 7.27913Z" fill="#FDCF6D"/>
    <path d="M44.1472 3.68227C46.1337 3.68227 47.7441 2.87705 47.7441 1.88377C47.7441 0.890483 46.1337 0.0852661 44.1472 0.0852661C42.1608 0.0852661 40.5504 0.890483 40.5504 1.88377C40.5504 2.87705 42.1608 3.68227 44.1472 3.68227Z" fill="#FDCF6D"/>
</svg>
