<svg width="84" height="60" viewBox="0 0 84 60" fill="none" xmlns="http://www.w3.org/2000/svg">
<path d="M60.6238 59.9462L23.5412 59.9462C18.6237 59.9462 13.9077 57.9927 10.4306 54.5155C6.95345 51.0383 5.00002 46.3223 5.00002 41.4049L79.1649 41.4049C79.1649 46.3223 77.2115 51.0383 73.7344 54.5155C70.2572 57.9927 65.5412 59.9462 60.6238 59.9462Z" fill="#CC4900"/>
<path d="M53.2072 41.405H75.4567V48.8216H53.2072V41.405Z" fill="#E76400"/>
<path d="M56.9154 41.405H5C5 46.3225 6.95343 51.0385 10.4306 54.5157C13.9077 57.9928 18.6237 59.9463 23.5411 59.9464H38.3743C43.2917 59.9463 48.0077 57.9928 51.4848 54.5157C54.962 51.0385 56.9154 46.3225 56.9154 41.405Z" fill="#EF7F00"/>
<path d="M8.70813 41.405H53.2071V48.8216H8.70813V41.405Z" fill="#F59707"/>
<path d="M42.0824 52.5298L8.70813 37.6969H75.4567L42.0824 52.5298Z" fill="#FDBC34"/>
<path d="M41.3295 48.8057L65.967 37.8559L67.4734 41.2455L42.8359 52.1952L41.3295 48.8057Z" fill="#FDAB00"/>
<path d="M71.7485 26.5721H12.4166C8.32051 26.5721 5 29.8926 5 33.9886C5 38.0846 8.32051 41.4051 12.4166 41.4051H71.7485C75.8446 41.4051 79.1651 38.0846 79.1651 33.9886C79.1651 29.8926 75.8446 26.5721 71.7485 26.5721Z" fill="#8B2800"/>
<path d="M49.499 26.5721H12.4166C8.32051 26.5721 5 29.8926 5 33.9886C5 38.0846 8.32051 41.4051 12.4166 41.4051H49.499C53.5951 41.4051 56.9156 38.0846 56.9156 33.9886C56.9156 29.8926 53.5951 26.5721 49.499 26.5721Z" fill="#993B17"/>
<path d="M43.9368 37.6969C53.1528 37.6969 60.6239 34.3764 60.6239 30.2803C60.6239 26.1842 53.1528 22.8637 43.9368 22.8637C34.7207 22.8637 27.2496 26.1842 27.2496 30.2803C27.2496 34.3764 34.7207 37.6969 43.9368 37.6969Z" fill="#C11107"/>
<path d="M58.7697 37.6967C67.9857 37.6967 75.4568 33.5461 75.4568 28.4261C75.4568 23.3061 67.9857 19.1555 58.7697 19.1555C49.5536 19.1555 42.0825 23.3061 42.0825 28.4261C42.0825 33.5461 49.5536 37.6967 58.7697 37.6967Z" fill="#C82E25"/>
<path d="M25.3953 33.9887C34.6113 33.9887 42.0824 30.6682 42.0824 26.5721C42.0824 22.4761 34.6113 19.1555 25.3953 19.1555C16.1792 19.1555 8.70813 22.4761 8.70813 26.5721C8.70813 30.6682 16.1792 33.9887 25.3953 33.9887Z" fill="#C82E25"/>
<path d="M58.7697 33.9885C65.9378 33.9885 71.7486 31.4981 71.7486 28.4261C71.7486 25.3541 65.9378 22.8637 58.7697 22.8637C51.6016 22.8637 45.7908 25.3541 45.7908 28.4261C45.7908 31.4981 51.6016 33.9885 58.7697 33.9885Z" fill="#D2514A"/>
<path d="M8.70813 26.5721C8.70813 26.5721 8.70813 30.2803 16.1247 30.2803C23.5413 30.2803 23.5411 33.9885 27.2494 33.9885C30.9578 33.9885 30.9576 30.2803 38.3742 30.2803C45.7908 30.2803 45.069 33.9885 49.1381 33.9885C53.2071 33.9885 53.2071 30.2803 60.6237 30.2803C68.0403 30.2803 75.4567 30.2803 75.4567 22.8637H8.70813V26.5721Z" fill="#FEE3AA"/>
<path d="M27.2496 26.5721C27.2496 23.1633 27.921 19.7879 29.2255 16.6385C30.53 13.4892 32.4421 10.6276 34.8525 8.21724C37.2629 5.80685 40.1244 3.89482 43.2737 2.59032C46.4231 1.28583 49.7985 0.61441 53.2073 0.61441C56.6161 0.61441 59.9916 1.28583 63.1409 2.59032C66.2902 3.89482 69.1518 5.80685 71.5622 8.21724C73.9726 10.6276 75.8846 13.4892 77.1891 16.6385C78.4936 19.7879 79.165 23.1633 79.165 26.5721H27.2496Z" fill="#EF7F00"/>
<path d="M53.2071 15.4473C61.3991 15.4473 68.04 12.1268 68.04 8.03079C68.04 3.93473 61.3991 0.614227 53.2071 0.614227C45.0151 0.614227 38.3741 3.93473 38.3741 8.03079C38.3741 12.1268 45.0151 15.4473 53.2071 15.4473Z" fill="#E76400"/>
<path d="M58.7695 41.4051C56.3861 41.4065 54.01 41.1399 51.6862 40.6102C49.1373 41.1414 46.5403 41.4078 43.9366 41.4051C37.6589 41.4051 31.9933 40.0179 28.2434 37.5844C27.3164 37.6551 26.3676 37.6969 25.3953 37.6969C18.9059 37.6969 13.0464 36.2301 9.3219 33.6716L11.4224 30.6153C14.5439 32.759 19.6373 33.9885 25.3953 33.9885C26.487 33.9885 27.5446 33.9306 28.5729 33.8347L29.2628 33.7712L29.8243 34.175C34.2332 37.3419 43.4676 38.6439 51.3005 36.9001L51.7242 36.806L52.1442 36.9074C54.3133 37.4337 56.5375 37.6988 58.7695 37.6969C65.1793 37.6969 70.9228 35.7031 73.7601 32.4929L76.5377 34.9482C72.967 38.9913 66.3237 41.4051 58.7695 41.4051Z" fill="#7D1A00"/>
<path d="M60.6237 19.1555H75.4566V26.5721H60.6237V19.1555Z" fill="#FDBC34"/>
<path d="M5 26.5721C5 19.6877 7.73482 13.0852 12.6028 8.21721C17.4708 3.3492 24.0733 0.61438 30.9577 0.61438C37.8421 0.61438 44.4446 3.3492 49.3126 8.21721C54.1806 13.0852 56.9154 19.6877 56.9154 26.5721H5Z" fill="#F59707"/>
<path d="M8.70813 19.1555H53.2071V26.5721H8.70813V19.1555Z" fill="#FDCF6D"/>
<path d="M30.9577 15.4473C39.1497 15.4473 45.7907 12.1268 45.7907 8.03079C45.7907 3.93473 39.1497 0.614227 30.9577 0.614227C22.7657 0.614227 16.1248 3.93473 16.1248 8.03079C16.1248 12.1268 22.7657 15.4473 30.9577 15.4473Z" fill="#EF7F00"/>
<path d="M19.8329 11.7391C21.8809 11.7391 23.5411 10.909 23.5411 9.88495C23.5411 8.86091 21.8809 8.03076 19.8329 8.03076C17.785 8.03076 16.1248 8.86091 16.1248 9.88495C16.1248 10.909 17.785 11.7391 19.8329 11.7391Z" fill="#FEE3AA"/>
<path d="M30.9578 4.32259C33.0058 4.32259 34.666 3.49245 34.666 2.46841C34.666 1.44437 33.0058 0.614227 30.9578 0.614227C28.9098 0.614227 27.2496 1.44437 27.2496 2.46841C27.2496 3.49245 28.9098 4.32259 30.9578 4.32259Z" fill="#FEE3AA"/>
<path d="M42.0823 8.03082C44.1303 8.03082 45.7905 7.20067 45.7905 6.17663C45.7905 5.15259 44.1303 4.32245 42.0823 4.32245C40.0344 4.32245 38.3741 5.15259 38.3741 6.17663C38.3741 7.20067 40.0344 8.03082 42.0823 8.03082Z" fill="#FEE3AA"/>
<path d="M60.6238 8.03082C62.6718 8.03082 64.332 7.20067 64.332 6.17663C64.332 5.15259 62.6718 4.32245 60.6238 4.32245C58.5759 4.32245 56.9156 5.15259 56.9156 6.17663C56.9156 7.20067 58.5759 8.03082 60.6238 8.03082Z" fill="#FDCF6D"/>
<path d="M49.4991 4.32259C51.5471 4.32259 53.2073 3.49245 53.2073 2.46841C53.2073 1.44437 51.5471 0.614227 49.4991 0.614227C47.4511 0.614227 45.7909 1.44437 45.7909 2.46841C45.7909 3.49245 47.4511 4.32259 49.4991 4.32259Z" fill="#FDCF6D"/>
</svg>
