<?xml version="1.0" encoding="UTF-8"?>
<svg version="1.1" viewBox="0 0 2048 1927" width="1280" height="1280" xmlns="http://www.w3.org/2000/svg">
<path transform="translate(0)" d="m0 0h2048v1927h-2048z" fill="#FDFDFD"/>
<path transform="translate(525,201)" d="m0 0h78l941 1 22 2 25 5 24 8 25 12 15 9 16 12 12 11 11 11 11 14 10 14 10 18 8 17 8 24 4 21 1 10 1 39v1126l-1 20-2 14-5 16-8 16-10 14-12 14-11 10-14 11-13 11-14 11-15 12-21 14-19 10-21 7-6 1h-18l-15-3-15-5-16-8-14-9-11-9-14-12-11-9-16-12-12-7-15-6-15-4-18-2h-14l-16 2-16 5-17 8-18 12-17 14-13 11-16 12-16 9-19 8-15 4-5 1h-19l-18-4-19-8-14-8-12-9-11-9-13-11-17-13-14-9-16-8-12-4-14-2h-29l-17 3-17 5-12 5-12 7-10 9-12 12-13 10-15 11-10 6-19 8-18 5-14 2h-10l-20-3-5-2h-14l-13 5-10 2-17 1h-21l-20-2-31-6-25-6-36-12-24-11-28-14-24-16-16-12-13-11-10-9-19-19-18-22-18-27-9-16-8-16-7-15-11-30-7-26-6-35-3-28v-18l2-27 5-30 6-26 9-27 11-25 12-24 10-17 13-19 8-10 9-11 12-13 8-9 8-7 10-9 20-15 17-11 20-12 16-8 25-11 34-12h2l-1-122v-441l-263-1-14-3-12-5-11-6-11-9-7-7-10-14-8-16-3-12-1-7v-19l3-23 5-21 7-20 13-27 10-17 9-12 12-14 10-10 22-18 18-11 23-11 24-8 23-5 16-2z" fill="#FDFDFD"/>
<path transform="translate(525,201)" d="m0 0h78l941 1 22 2 25 5 24 8 25 12 15 9 16 12 12 11 11 11 11 14 10 14 10 18 8 17 8 24 4 21 1 10 1 39v1126l-1 20-2 14-5 16-8 16-10 14-12 14-11 10-14 11-13 11-14 11-15 12-21 14-19 10-21 7-6 1h-18l-15-3-15-5-16-8-14-9-11-9-14-12-11-9-16-12-12-7-15-6-15-4-18-2h-14l-16 2-16 5-17 8-18 12-17 14-13 11-16 12-16 9-19 8-15 4-5 1h-19l-18-4-19-8-14-8-12-9-11-9-13-11-17-13-14-9-16-8-12-4-14-2h-29l-17 3-17 5-12 5-12 7-10 9-12 12-13 10-15 11-10 6-19 8-18 5-14 2h-10l-20-3-5-2h-14l-13 5-10 2-17 1h-21l-20-2-31-6-25-6-36-12-24-11-28-14-24-16-16-12-13-11-10-9-19-19-18-22-18-27-9-16-8-16-7-15-11-30-7-26-6-35-3-28v-18l2-27 5-30 6-26 9-27 11-25 12-24 10-17 13-19 8-10 9-11 12-13 8-9 8-7 10-9 20-15 17-11 20-12 16-8 25-11 34-12h2l-1-122v-441l-263-1-14-3-12-5-11-6-11-9-7-7-10-14-8-16-3-12-1-7v-19l3-23 5-21 7-20 13-27 10-17 9-12 12-14 10-10 22-18 18-11 23-11 24-8 23-5 16-2zm211 85-39 1 2 5 6 14 7 21 6 28 4 31 1 13 1 38 1 613 11 2 35 4 24 5 12 3h6v-26l6-9 14-14 8-4 222-1h66l407 1 15 2 10 6 7 8 5 8 3 9v16l-3 10-6 10-8 8-8 4-7 2-14 1h-641l4 4 20 13 16 10 17 13 15 13 14 14 9 11 10 11 11-1 36-1h492l18 2 10 6 8 9 6 13 1 5v10l-3 12-6 11-9 9-9 4-6 1-18 1h-484l2 9 10 31 7 29 3 20 2 29v18l-2 30-4 25-7 30-12 36-11 25-7 13v4l30 5 19 5 25 10 21 11 15 10 14 11 10 9 8 7 14 12 13 8h6l15-8 13-10 13-11 14-11 16-12 21-12 24-10 21-6 21-4 11-1h25l24 3 19 4 23 8 19 9 18 11 14 10 11 9 10 9 11 9 14 10 8 5 20-11 12-9 14-11 11-9 16-13 10-8 14-14 4-9 1-5 1-23v-1073l-1-60-2-20-5-19-7-16-9-15-9-11-6-7-14-11-14-9-17-8-14-4-19-2-27-1z" fill="#009E5C"/>
<path transform="translate(525,201)" d="m0 0h78l941 1 22 2 25 5 24 8 25 12 15 9 16 12 12 11 11 11 11 14 10 14 10 18 8 17 8 24 4 21 1 10 1 39v1126l-1 20-2 14-5 16-8 16-10 14-12 14-11 10-14 11-13 11-14 11-15 12-21 14-19 10-21 7-6 1h-18l-15-3-15-5-16-8-14-9-11-9-14-12-11-9-16-12-12-7-15-6-15-4-18-2h-14l-16 2-16 5-17 8-18 12-17 14-13 11-16 12-16 9-19 8-15 4-5 1h-19l-18-4-19-8-14-8-12-9-11-9-13-11-17-13-14-9-16-8-12-4-14-2h-29l-17 3-17 5-12 5-12 7-10 9-12 12-13 10-15 11-10 6-19 8-18 5-14 2h-10l-20-3-5-2v-1l19-1 24-7 10-3 25-12 22-12h2v-2l6-3h2v-2l17-10 19-13 14-12 6-7 13-13 7-8 12-14 13-18 6-9 3-5 9-14 2-2v3l14 1 25 5 21 7 20 9 15 8 15 10 14 11 10 9 8 7 14 12 13 8h6l15-8 13-10 13-11 14-11 16-12 21-12 24-10 21-6 21-4 11-1h25l24 3 19 4 23 8 19 9 18 11 14 10 11 9 10 9 11 9 14 10 8 5 20-11 12-9 14-11 11-9 16-13 10-8 13-13 4-9 1-5 1-23v-1073l-1-60-2-20-5-19-7-16-9-15-9-11-5-6-14-11-14-9-17-8-14-4-19-2-27-1h-824l8 16 8 24 6 28 4 31 1 13 1 38v613l3 1-26 1-20 3-27 6-14 3-1-1-1-122v-441l-263-1-14-3-12-5-11-6-11-9-7-7-10-14-8-16-3-12-1-7v-19l3-23 5-21 7-20 13-27 10-17 9-12 12-14 10-10 22-18 18-11 23-11 24-8 23-5 16-2z" fill="#96989C"/>
<path transform="translate(890,456)" d="m0 0h180l16 2 16 6 12 7 14 12 10 13 9 17 3 12 1 10v268l-2 13-6 18-8 13-11 12-9 8-14 8-9 4-13 3-10 1h-183l-14-3-12-5-14-9-10-9-7-7-10-15-4-9-2-10-1-15v-276l3-14 6-11 8-11 12-12 15-11 14-7 8-2z" fill="#97989D"/>
<path transform="translate(1051,1009)" d="m0 0h78l407 1 15 2 10 6 8 9 5 8 3 9v16l-3 10-6 10-9 9-8 4-7 2-14 1h-642l-15-8-11-5-11-4-12-5-15-5-13-4 2-1-1-4v-22l6-9 15-15 8-4z" fill="#97989D"/>
<path transform="translate(1041,1181)" d="m0 0h492l18 2 10 6 9 10 6 13 1 5v10l-3 12-6 11-10 10-9 4-6 1-18 1h-485l-9-20-10-20-12-20-10-14-5-6 1-3 10-1z" fill="#97989D"/>
<path transform="translate(896,542)" d="m0 0h167l3 2 1 28v223l-4 3h-163l-4-2-1-19v-228z" fill="#FDFDFD"/>
<path transform="translate(717,1245)" d="m0 0h16l11 4 9 6 8 9 5 10 2 6 1 11v56l2 3 10 1 55 1 15 4 9 6 5 5 4 5 5 12v16l-4 12-8 10-11 10-8 2-9 1-64 1-1 54-2 17-4 13-9 10-7 6-9 6-9 3-11-1-12-6-12-11-7-10-3-7-2-22-1-53h-73l-9-4-8-6-7-7-7-11-3-10 1-11 5-12 8-10 9-7 16-4 7-1h49l10-1 2-1v-46l1-22 4-11 7-10 8-8 9-6z" fill="#FDFDFD"/>
<path transform="translate(1337,455)" d="m0 0h157l49 1 10 3 9 6 7 8 6 12 2 9v11l-3 12-7 11-10 8-9 4-17 2-96 1h-148l-13-1-12-4-9-6-7-7-5-9-3-8-1-5v-9l3-12 6-10 10-10 8-5 5-1z" fill="#97989D"/>
<path transform="translate(1291,626)" d="m0 0h226l25 1 10 2 8 5 8 8 7 14 2 9v9l-3 12-6 10-7 7-10 6-8 2-10 1-89 1h-162l-14-2-12-6-10-10-8-16-1-3v-12l4-13 6-9 10-10 8-4 5-1z" fill="#97989D"/>
<path transform="translate(1299,797)" d="m0 0h171l65 1 16 2 8 4 8 8 7 12 2 7v18l-4 11-7 10-8 7-9 4-5 1-16 1h-248l-14-3-10-5-8-7-6-10-3-7-1-13 2-10 4-10 7-9 8-7 10-4z" fill="#97989D"/>
<path transform="translate(500,287)" d="m0 0h28l15 2 15 4 17 8 12 8 10 8 12 12 11 15 8 15 7 18 4 20 1 14-3 3-24 1h-227l-4-2-1-2 1-12 7-24 6-15 8-15 9-12 9-10 8-8 14-10 17-9 15-5 16-3z" fill="#FDFDFD"/>
<path transform="translate(881,1709)" d="m0 0h2l-1 5-5 5-19 8-18 5h-6v-2l6-2 18-7 9-5 7-2z" fill="#1C9D68"/>
<path transform="translate(1451,1672)" d="m0 0 4 2 12 9 14 12 16 13 15 10 14 7-3 1-16-8-14-10-14-12-13-11-14-11z" fill="#309C70"/>
<path transform="translate(893,1692)" d="m0 0 2 1-14 9-9 6-17 7-5 3-10 3-1-2 18-8 20-10z" fill="#FDFDFD"/>
<path transform="translate(579,303)" d="m0 0 5 2 12 9 7 6 6 8-4-2-11-11-15-11z" fill="#2D9C6F"/>
<path transform="translate(1451,1672)" d="m0 0 4 2 12 9 14 12v3l-15-13-14-11z" fill="#3C9C76"/>
<path transform="translate(1610,308)" d="m0 0 5 2 11 9 9 10h-3l-6-7-14-11z" fill="#2E9C70"/>
<path transform="translate(806,1730)" d="m0 0h12l8 2v2h-10v-2l-10-1z" fill="#229D6A"/>
<path transform="translate(597,316)" d="m0 0 4 2 8 9h-3l-9-9z" fill="#3B9C75"/>
</svg>
